<?xml version="1.0" encoding="UTF-8" standalone="no"?>
<!DOCTYPE svg PUBLIC "-//W3C//DTD SVG 1.1//EN" "http://www.w3.org/Graphics/SVG/1.1/DTD/svg11.dtd">
<!-- Created with Vectornator (http://vectornator.io/) -->
<svg height="100%" stroke-miterlimit="10" style="fill-rule:nonzero;clip-rule:evenodd;stroke-linecap:round;stroke-linejoin:round;" version="1.1" viewBox="0 0 1080 1016.1" width="100%" xml:space="preserve" xmlns="http://www.w3.org/2000/svg" xmlns:vectornator="http://vectornator.io" xmlns:xlink="http://www.w3.org/1999/xlink">
<defs>
<linearGradient gradientTransform="matrix(0.913158 0 0 0.913158 49.811 45.1459)" gradientUnits="userSpaceOnUse" id="LinearGradient" x1="150.613" x2="415.258" y1="270.181" y2="397.943">
<stop offset="0" stop-color="#b8f6ff"/>
<stop offset="0.15" stop-color="#aaf0fa"/>
<stop offset="0.4331" stop-color="#85dfed"/>
<stop offset="0.6323" stop-color="#67d2e3"/>
<stop offset="1" stop-color="#67d2e3"/>
</linearGradient>
</defs>
<g id="Untitled" vectornator:layerName="Untitled">
<g opacity="1">
<g opacity="1">
<clipPath id="ClipPath">
<path d="M1020.6 850.501C982.978 784.845 950.378 729.142 924.079 684.763C948.826 628.512 962.615 566.235 962.615 500.762C962.615 248.547 758.158 44 505.853 44C253.547 44 49 248.547 49 500.853C49 746.401 242.681 946.657 485.581 957.249C492.247 957.523 499.004 957.706 505.762 957.706C584.567 957.706 658.716 937.799 723.367 902.642L771.673 937.982C802.081 960.171 837.968 971.951 875.499 971.951C931.567 971.951 984.713 944.922 1017.77 899.72L1035.12 875.978L1020.6 850.501Z"/>
</clipPath>
<g clip-path="url(#ClipPath)">
<path d="M962.615 500.853C962.615 620.385 916.683 729.234 841.53 810.687C758.067 901.09 638.535 957.706 505.853 957.706C499.096 957.706 492.338 957.523 485.672 957.249C242.681 946.657 49 746.401 49 500.853C49 248.547 253.547 44 505.853 44C758.158 44 962.615 248.547 962.615 500.853Z" fill="#000000" fill-rule="nonzero" opacity="1" stroke="none"/>
</g>
</g>
<g opacity="1">
<clipPath id="ClipPath_2">
<path d="M1021.41 851.647C983.789 785.991 951.189 730.288 924.89 685.909C949.637 629.658 963.426 567.381 963.426 501.908C963.426 249.693 758.969 45.1459 506.664 45.1459C254.358 45.1459 49.811 249.693 49.811 501.999C49.811 747.547 243.492 947.803 486.392 958.395C493.058 958.669 499.815 958.852 506.573 958.852C585.378 958.852 659.527 938.945 724.178 903.788L772.484 939.128C802.892 961.317 838.78 973.097 876.31 973.097C932.378 973.097 985.524 946.068 1018.58 900.866L1035.93 877.124L1021.41 851.647Z"/>
</clipPath>
<g clip-path="url(#ClipPath_2)">
<path d="M839.967 506.199L839.967 814.025C757.782 903.149 639.985 958.943 509.129 958.943C502.463 958.943 495.432 958.76 488.857 958.486L489.223 210.336L544.103 210.336C707.559 210.336 839.967 342.835 839.967 506.199Z" fill="#ffffff" fill-rule="nonzero" opacity="1" stroke="none"/>
</g>
</g>
<g opacity="1">
<clipPath id="ClipPath_3">
<path d="M1021.41 851.647C983.789 785.991 951.189 730.288 924.89 685.909C949.637 629.658 963.426 567.381 963.426 501.908C963.426 249.693 758.969 45.1459 506.664 45.1459C254.358 45.1459 49.811 249.693 49.811 501.999C49.811 747.547 243.492 947.803 486.392 958.395C493.058 958.669 499.815 958.852 506.573 958.852C585.378 958.852 659.527 938.945 724.178 903.788L772.484 939.128C802.892 961.317 838.78 973.097 876.31 973.097C932.378 973.097 985.524 946.068 1018.58 900.866L1035.93 877.124L1021.41 851.647Z"/>
</clipPath>
<g clip-path="url(#ClipPath_3)">
<path d="M568.393 378.083C568.393 335.266 603.103 300.556 645.921 300.556C688.738 300.556 723.448 335.266 723.448 378.083C723.448 420.9 688.738 455.61 645.921 455.61C603.103 455.61 568.393 420.9 568.393 378.083Z" fill="#000000" fill-rule="nonzero" opacity="1" stroke="none"/>
</g>
</g>
<g opacity="1">
<clipPath id="ClipPath_4">
<path d="M1021.41 851.647C983.789 785.991 951.189 730.288 924.89 685.909C949.637 629.658 963.426 567.381 963.426 501.908C963.426 249.693 758.969 45.1459 506.664 45.1459C254.358 45.1459 49.811 249.693 49.811 501.999C49.811 747.547 243.492 947.803 486.392 958.395C493.058 958.669 499.815 958.852 506.573 958.852C585.378 958.852 659.527 938.945 724.178 903.788L772.484 939.128C802.892 961.317 838.78 973.097 876.31 973.097C932.378 973.097 985.524 946.068 1018.58 900.866L1035.93 877.124L1021.41 851.647Z"/>
</clipPath>
<g clip-path="url(#ClipPath_4)">
<path d="M740.067 575.782C764.996 575.782 790.2 583.452 811.933 599.25C811.933 599.25 872.018 695.588 969.178 865.253L969.178 865.253C945.345 897.944 908.271 915.203 870.74 915.203C845.811 915.203 820.608 907.532 798.875 891.735L668.019 796.036C613.686 756.313 601.815 680.065 641.537 625.732L641.537 625.732C665.462 593.132 702.445 575.782 740.067 575.782M736.049 517.979C679.981 517.979 626.836 545.009 593.779 590.21C566.019 628.197 554.696 674.677 561.91 721.248C569.124 767.728 594.053 808.637 632.041 836.397L772.576 939.128C802.984 961.317 838.871 973.097 876.402 973.097C932.469 973.097 985.615 946.068 1018.67 900.866L1036.02 877.124L1021.41 851.647C917.768 670.75 852.294 565.555 851.564 564.459L846.907 557.062L839.875 551.949C809.558 529.667 773.58 517.979 736.049 517.979L736.049 517.979Z" fill="#000000" fill-rule="nonzero" opacity="1" stroke="none"/>
</g>
</g>
<g opacity="1">
<clipPath id="ClipPath_5">
<path d="M1021.41 851.647C983.789 785.991 951.189 730.288 924.89 685.909C949.637 629.658 963.426 567.381 963.426 501.908C963.426 249.693 758.969 45.1459 506.664 45.1459C254.358 45.1459 49.811 249.693 49.811 501.999C49.811 747.547 243.492 947.803 486.392 958.395C493.058 958.669 499.815 958.852 506.573 958.852C585.378 958.852 659.527 938.945 724.178 903.788L772.484 939.128C802.892 961.317 838.78 973.097 876.31 973.097C932.378 973.097 985.524 946.068 1018.58 900.866L1035.93 877.124L1021.41 851.647Z"/>
</clipPath>
<g clip-path="url(#ClipPath_5)">
<path d="M740.067 575.782C764.996 575.782 790.2 583.452 811.933 599.25C811.933 599.25 872.018 695.588 969.178 865.253L969.178 865.253C945.345 897.944 908.271 915.203 870.74 915.203C845.811 915.203 820.608 907.532 798.875 891.735L668.019 796.036C613.686 756.313 601.815 680.065 641.537 625.732L641.537 625.732C665.462 593.132 702.445 575.782 740.067 575.782" fill="#ffffff" fill-rule="nonzero" opacity="1" stroke="none"/>
</g>
</g>
<g opacity="1">
<clipPath id="ClipPath_6">
<path d="M1021.41 851.647C983.789 785.991 951.189 730.288 924.89 685.909C949.637 629.658 963.426 567.381 963.426 501.908C963.426 249.693 758.969 45.1459 506.664 45.1459C254.358 45.1459 49.811 249.693 49.811 501.999C49.811 747.547 243.492 947.803 486.392 958.395C493.058 958.669 499.815 958.852 506.573 958.852C585.378 958.852 659.527 938.945 724.178 903.788L772.484 939.128C802.892 961.317 838.78 973.097 876.31 973.097C932.378 973.097 985.524 946.068 1018.58 900.866L1035.93 877.124L1021.41 851.647Z"/>
</clipPath>
<g clip-path="url(#ClipPath_6)">
<path d="M249.701 534.325C249.701 634.041 330.607 714.947 430.324 714.947L430.324 534.325L249.701 534.325Z" fill="#ffffff" fill-rule="nonzero" opacity="1" stroke="none"/>
</g>
</g>
<g opacity="1">
<clipPath id="ClipPath_7">
<path d="M1021.41 851.647C983.789 785.991 951.189 730.288 924.89 685.909C949.637 629.658 963.426 567.381 963.426 501.908C963.426 249.693 758.969 45.1459 506.664 45.1459C254.358 45.1459 49.811 249.693 49.811 501.999C49.811 747.547 243.492 947.803 486.392 958.395C493.058 958.669 499.815 958.852 506.573 958.852C585.378 958.852 659.527 938.945 724.178 903.788L772.484 939.128C802.892 961.317 838.78 973.097 876.31 973.097C932.378 973.097 985.524 946.068 1018.58 900.866L1035.93 877.124L1021.41 851.647Z"/>
</clipPath>
<g clip-path="url(#ClipPath_7)">
<path d="M430.324 210.245C282.118 210.245 162.038 330.325 162.038 478.531L430.324 478.531L430.324 210.245Z" fill="url(#LinearGradient)" fill-rule="nonzero" opacity="1" stroke="none"/>
</g>
</g>
</g>
</g>
</svg>
